HIERARCHY
ROOT Hips
{
	OFFSET 0.000000 0.000000 0.000000
	CHANNELS 6 Xposition Yposition Zposition Zrotation Yrotation Xrotation 
	JOINT LHipJoint
	{
		OFFSET 0.000000 0.000000 0.000000
		CHANNELS 3 Zrotation Yrotation Xrotation
		JOINT LeftUpLeg
		{
			OFFSET 1.363060 -1.794630 0.839290
			CHANNELS 3 Zrotation Yrotation Xrotation
			JOINT LeftLeg
			{
				OFFSET 2.448110 -6.726130 0.000000
				CHANNELS 3 Zrotation Yrotation Xrotation
				JOINT LeftFoot
				{
					OFFSET 2.562200 -7.039590 0.000000
					CHANNELS 3 Zrotation Yrotation Xrotation
					JOINT LeftToeBase
					{
						OFFSET 0.157640 -0.433110 2.322550
						CHANNELS 3 Zrotation Yrotation Xrotation
						End Site
						{
							OFFSET 0.000000 0.000000 0.000000
						}
					}
				}
			}
		}
	}
	JOINT RHipJoint
	{
		OFFSET 0.000000 0.000000 0.000000
		CHANNELS 3 Zrotation Yrotation Xrotation
		JOINT RightUpLeg
		{
			OFFSET -1.305520 -1.794630 0.839290
			CHANNELS 3 Zrotation Yrotation Xrotation
			JOINT RightLeg
			{
				OFFSET -2.542530 -6.985550 0.000000
				CHANNELS 3 Zrotation Yrotation Xrotation
				JOINT RightFoot
				{
					OFFSET -2.568260 -7.056230 0.000000
					CHANNELS 3 Zrotation Yrotation Xrotation
					JOINT RightToeBase
					{
						OFFSET -0.164730 -0.452590 2.363150
						CHANNELS 3 Zrotation Yrotation Xrotation
						End Site
						{
							OFFSET 0.000000 0.000000 0.000000
						}
					}
				}
			}
		}
	}
}
MOTION
Frames: 33
Frame Time: 0.008333
2.931995 16.942792 2.779967 -45.265638 -47.950508 31.665311 -14.131157 -2.669840 -1.795901 15.129173 -17.518668 1.934715 0.091179 2.943585 32.103975 0.923844 3.149550 -15.991210 -0.556400 -0.000000 -45.154300 4.364173 6.654298 0.680548 -3.994712 -21.239273 -73.925193 2.435759 0.501017 3.970304 0.432127 -11.249715 -7.294578 -3.642900 0.000001 -51.994200
2.894505 16.981453 2.798286 -44.922492 -47.901477 31.424087 -14.040984 -2.498277 -1.545011 15.198420 -16.880372 1.784105 0.113768 2.796157 31.179618 0.823010 2.510171 -15.543270 -0.445800 -0.000000 -46.659400 4.800491 6.558341 1.012163 -6.864373 -19.680939 -69.540588 1.898738 0.596479 2.763097 0.247520 -15.158050 -6.172344 -4.747800 0.000001 -54.526801
2.859020 17.015404 2.820906 -44.932433 -48.016814 31.614844 -14.002379 -2.325795 -1.273586 15.527609 -15.899406 1.333066 0.157222 2.643720 30.428249 0.707910 1.768488 -15.154464 -0.330200 0.000000 -48.250900 5.226358 6.351356 1.360834 -9.301531 -17.410551 -64.603056 1.356238 0.807076 0.190669 -0.567663 -19.542902 -3.388395 -6.005200 -0.000000 -57.142800
2.827707 17.042582 2.848055 -45.375295 -48.204619 32.060986 -14.027043 -2.131639 -0.972776 16.108391 -14.726210 0.914999 0.215391 2.502687 29.772275 0.588434 0.973100 -14.822938 -0.214900 0.000000 -49.840200 5.565325 6.055913 1.478329 -9.912298 -15.360664 -59.512343 1.074175 1.106316 -3.971965 -2.318661 -22.574374 1.754521 -6.875301 0.000000 -60.028000
2.799454 17.062081 2.875270 -45.971818 -48.361016 32.330184 -14.065976 -1.920438 -0.687093 16.639313 -13.751474 0.963598 0.264365 2.386148 29.080595 0.493558 0.313313 -14.555328 -0.125200 -0.000001 -51.193801 5.782905 5.760450 1.270234 -8.242709 -14.618268 -56.870749 1.316635 1.114182 -4.661660 -3.671801 -22.315640 6.162453 -6.700200 0.000000 -62.534000
2.770576 17.073922 2.895466 -46.403059 -48.445411 32.078827 -14.068103 -1.706750 -0.478074 16.853636 -13.257874 1.743267 0.280717 2.307697 28.254749 0.440997 -0.077693 -14.354094 -0.077100 -0.000000 -52.154400 5.902370 5.508812 0.804441 -5.502389 -15.102013 -58.306449 1.954554 0.461008 2.711002 -3.222175 -19.491594 6.365029 -5.759300 -0.000000 -63.087300
2.741747 17.078263 2.909087 -46.805869 -48.547817 31.507342 -14.077156 -1.482825 -0.326771 16.916224 -13.010371 3.040117 0.275065 2.273140 27.352013 0.412532 -0.305978 -14.202409 -0.052100 0.000001 -52.833199 6.052711 5.236269 0.112184 -2.997181 -15.779036 -58.735283 2.426373 -0.233746 9.156528 -2.722518 -16.746695 7.216636 -5.005000 -0.000001 -61.386201
2.715687 17.076521 2.920106 -47.307492 -48.723177 30.991544 -14.121853 -1.290770 -0.247502 16.998678 -12.769214 4.480776 0.265604 2.266782 26.469622 0.392962 -0.470433 -14.089370 -0.035100 0.000000 -53.319400 6.237488 4.939007 -0.550357 -1.177873 -16.080542 -57.986980 2.652642 -0.771777 13.877001 -2.344215 -14.834379 8.535473 -4.587299 0.000000 -58.434600
2.693566 17.070807 2.930452 -47.883820 -48.972556 30.632485 -14.192614 -1.138187 -0.224989 17.104935 -12.494376 5.880376 0.258894 2.273527 25.649772 0.380817 -0.578582 -14.006205 -0.024700 0.000000 -53.613800 6.442082 4.627543 -1.096317 0.150509 -16.031188 -56.511801 2.733085 -1.128389 17.113933 -2.078991 -13.525965 9.837635 -4.325900 0.000000 -55.390801
2.675366 17.063153 2.940807 -48.477578 -49.267900 30.416663 -14.273553 -1.018413 -0.237623 17.206022 -12.213023 7.166423 0.255861 2.284699 24.901298 0.376805 -0.624825 -13.942407 -0.021399 0.000000 -53.716400 6.652254 4.311735 -1.518691 1.178433 -15.754544 -54.673146 2.750291 -1.345745 19.270501 -1.894540 -12.614962 10.798865 -4.116800 -0.000000 -53.112701
2.660610 17.055224 2.951649 -49.043107 -49.567755 30.308646 -14.353207 -0.920102 -0.261838 17.291907 -11.956536 8.292852 0.256100 2.295555 24.230287 0.379288 -0.620863 -13.888531 -0.023501 0.000000 -53.651100 6.857128 3.999384 -1.833619 2.022851 -15.358899 -52.684890 2.749305 -1.468148 20.666254 -1.767423 -12.013106 11.283548 -3.932300 -0.000001 -52.079699
2.648424 17.048342 2.963216 -49.543469 -49.826920 30.268009 -14.425391 -0.832689 -0.276995 17.369268 -11.749460 9.225336 0.258944 2.303503 23.645824 0.384647 -0.592761 -13.838615 -0.027900 -0.000000 -53.458200 7.048648 3.695203 -2.062844 2.752313 -14.931052 -50.659738 2.751916 -1.527511 21.521472 -1.683231 -11.684298 11.275829 -3.771700 0.000001 -52.355400
2.637823 17.043373 2.975540 -49.944172 -50.012304 30.248795 -14.484859 -0.747812 -0.269461 17.437409 -11.614521 9.955664 0.262713 2.307592 23.149180 0.390094 -0.560662 -13.788728 -0.032300 0.000000 -53.178200 7.223341 3.403123 -2.228117 3.398773 -14.536415 -48.644665 2.766029 -1.543631 21.972982 -1.633926 -11.602404 10.840443 -3.637900 -0.000000 -53.720700
2.627744 17.040736 2.988345 -50.216966 -50.102866 30.211445 -14.527461 -0.659330 -0.229968 17.495762 -11.561872 10.476598 0.265313 2.307325 22.747355 0.392577 -0.546635 -13.740678 -0.034400 -0.000000 -52.851100 7.381320 3.125911 -2.345610 3.973122 -14.216916 -46.658528 2.791842 -1.527728 22.100568 -1.615751 -11.740855 10.095577 -3.533300 -0.000000 -55.771000
2.617120 17.040456 3.000993 -50.334633 -50.100112 30.117868 -14.547631 -0.564310 -0.157266 17.525186 -11.596481 10.805247 0.263825 2.302731 22.437482 0.391370 -0.556593 -13.697089 -0.033800 0.000000 -52.503200 7.526272 2.866314 -2.427262 4.464671 -13.987585 -44.703151 2.823726 -1.487034 21.953501 -1.626160 -12.063730 9.192041 -3.459599 -0.000000 -58.011600
2.604982 17.042311 3.012889 -50.284034 -50.017411 29.949885 -14.540026 -0.462013 -0.053237 17.508560 -11.707480 10.951733 0.255745 2.293559 22.224073 0.385854 -0.596082 -13.665348 -0.030000 -0.000000 -52.152401 7.663909 2.625577 -2.478449 4.859690 -13.839028 -42.783461 2.853830 -1.427087 21.565194 -1.661724 -12.529765 8.295813 -3.423600 -0.000000 -59.974400
2.590784 17.045675 3.023260 -50.063326 -49.886481 29.698562 -14.499525 -0.354810 0.074195 17.417276 -11.876117 10.942644 0.238758 2.279714 22.103610 0.377331 -0.657284 -13.651909 -0.024100 -0.000000 -51.802699 7.800545 2.404664 -2.501491 5.139575 -13.741474 -40.908727 2.873177 -1.354051 20.971469 -1.716137 -13.087554 7.562969 -3.436601 0.000000 -61.326700
2.574061 17.049896 3.031349 -49.678819 -49.749735 29.366304 -14.422365 -0.246492 0.214442 17.222235 -12.075221 10.810051 0.211169 2.260930 22.069472 0.367897 -0.726954 -13.663510 -0.017600 -0.000000 -51.446700 7.941546 2.203471 -2.496283 5.291537 -13.655744 -39.097466 2.874733 -1.275136 20.218145 -1.779824 -13.673959 7.111264 -3.509400 0.000000 -61.919400
2.554847 17.054192 3.036748 -49.152341 -49.651584 28.967621 -14.306860 -0.141751 0.355818 16.899920 -12.274082 10.590471 0.172667 2.236971 22.110666 0.360256 -0.787032 -13.703959 -0.012400 0.000000 -51.070100 8.090716 2.020919 -2.462439 5.314980 -13.544977 -37.376163 2.855603 -1.198188 19.363892 -1.840589 -14.212664 6.998679 -3.643000 -0.000000 -61.773300
2.533475 17.057747 3.039129 -48.511306 -49.637754 28.519466 -14.155650 -0.045568 0.486438 16.433056 -12.440561 10.325177 0.123916 2.207752 22.210424 0.357257 -0.817861 -13.774634 -0.010800 0.000000 -50.655000 8.247943 1.855292 -2.400365 5.219330 -13.377467 -35.774532 2.817088 -1.130582 18.479274 -1.886144 -14.622691 7.212902 -3.820800 0.000000 -61.031400
2.510555 17.059988 3.038743 -47.793683 -49.738658 28.048632 -13.976011 0.036531 0.595543 15.828334 -12.541816 10.048062 0.067518 2.173347 22.352111 0.360241 -0.809729 -13.872525 -0.014300 0.000000 -50.190399 8.409705 1.702534 -2.313270 5.032637 -13.137537 -34.317053 2.765527 -1.078191 17.630004 -1.905802 -14.826606 7.686586 -4.007500 0.000001 -59.914500
2.487062 17.060357 3.035965 -47.046738 -49.982646 27.582147 -13.778252 0.103023 0.675970 15.102171 -12.549641 9.794521 0.006416 2.134658 22.513005 0.370361 -0.753238 -13.990788 -0.024100 -0.000000 -49.669900 8.570789 1.559460 -2.203294 4.788059 -12.809255 -33.015108 2.707847 -1.043563 16.873214 -1.893250 -14.772946 8.317820 -4.158600 0.000000 -58.676800
2.464009 17.058727 3.031512 -46.319626 -50.378309 27.150228 -13.575605 0.152922 0.723008 14.293330 -12.439824 9.587250 -0.055492 2.092815 22.673041 0.386861 -0.652343 -14.119935 -0.040099 -0.000000 -49.100000 8.723970 1.421120 -2.074620 4.528267 -12.387042 -31.863370 2.651991 -1.026663 16.242721 -1.846936 -14.443422 8.999507 -4.233299 -0.000000 -57.575600
2.442502 17.055108 3.026167 -45.660041 -50.922213 26.779456 -13.380771 0.186412 0.734655 13.444075 -12.200638 9.443682 -0.114464 2.049190 22.811255 0.408682 -0.512737 -14.247895 -0.061699 -0.000000 -48.494300 8.862146 1.283059 -1.932363 4.292882 -11.870996 -30.841796 2.604274 -1.025552 15.753070 -1.769949 -13.856703 9.637747 -4.206700 0.000001 -56.831100
2.423154 17.049922 3.020831 -45.108261 -51.591010 26.496502 -13.205577 0.205985 0.713573 12.612062 -11.824190 9.357276 -0.167211 2.005066 22.920198 0.432161 -0.359093 -14.364857 -0.085801 0.000000 -47.878300 8.979223 1.140790 -1.783517 4.124474 -11.280383 -29.921904 2.570389 -1.036604 15.397897 -1.668168 -13.058815 10.163427 -4.074700 0.000000 -56.595900
2.406509 17.043734 3.015850 -44.684479 -52.362898 26.307251 -13.054432 0.214409 0.663531 11.821415 -11.332319 9.341161 -0.212082 1.961379 22.978229 0.457397 -0.188948 -14.459153 -0.112400 -0.000000 -47.267200 9.073181 0.993130 -1.635565 4.041941 -10.638558 -29.070906 2.551612 -1.057114 15.169592 -1.549852 -12.114479 10.534067 -3.851700 0.000001 -56.936200
2.392355 17.037152 3.011983 -44.408893 -53.189551 26.235841 -12.933074 0.217070 0.596236 11.133408 -10.723330 9.338552 -0.247545 1.917938 23.008732 0.477187 -0.053359 -14.530561 -0.134300 0.000000 -46.700700 9.142557 0.838312 -1.493728 4.075172 -9.989394 -28.275328 2.549793 -1.083027 15.052787 -1.424280 -11.103853 10.736490 -3.569100 0.000000 -57.813900
2.380951 17.031040 3.008485 -44.242747 -54.060150 26.220264 -12.831922 0.215783 0.511910 10.482747 -10.098081 9.448457 -0.275857 1.877760 22.947494 0.503202 0.133665 -14.560088 -0.162200 -0.000000 -46.147300 9.194350 0.680484 -1.377392 4.193011 -9.388930 -27.464499 2.559068 -1.113695 15.009603 -1.298547 -10.083492 10.794414 -3.255500 -0.000000 -59.167800
2.371089 17.025857 3.005941 -44.186561 -54.916717 26.293341 -12.753539 0.217486 0.429797 9.941514 -9.430433 9.544770 -0.296660 1.838026 22.861595 0.522821 0.279945 -14.563840 -0.183900 0.000000 -45.661400 9.229637 0.519081 -1.281485 4.413845 -8.875317 -26.671794 2.577780 -1.145811 15.040762 -1.183369 -9.144707 10.733298 -2.953099 -0.000000 -60.787700
2.362436 17.022013 3.003620 -44.192834 -55.746863 26.407369 -12.688373 0.224312 0.355025 9.460984 -8.783318 9.659255 -0.312622 1.799298 22.728659 0.541917 0.427643 -14.538434 -0.204800 -0.000000 -45.227100 9.255801 0.358055 -1.213024 4.699428 -8.481840 -25.875369 2.597580 -1.179471 15.127677 -1.086250 -8.346771 10.603167 -2.690100 0.000000 -62.490900
2.354312 17.019771 3.001103 -44.220365 -56.528554 26.536617 -12.631213 0.239204 0.296128 9.028211 -8.184036 9.764543 -0.325849 1.761271 22.566491 0.560038 0.572393 -14.491199 -0.224400 0.000000 -44.844000 9.277915 0.199409 -1.172773 5.024195 -8.232353 -25.078257 2.612141 -1.213833 15.253640 -1.013253 -7.740691 10.458057 -2.489500 0.000000 -64.070700
2.346297 17.019168 2.997915 -44.227475 -57.254750 26.652258 -12.576422 0.263227 0.257900 8.618314 -7.655120 9.846869 -0.338543 1.723451 22.384625 0.578314 0.720892 -14.429715 -0.243700 0.000000 -44.504400 9.300437 0.045627 -1.158380 5.355309 -8.128367 -24.289881 2.614984 -1.248974 15.410822 -0.968423 -7.358425 10.344065 -2.364201 -0.000000 -65.344700
2.337906 17.020071 2.993654 -44.183709 -57.926021 26.742654 -12.519890 0.296369 0.243647 8.216793 -7.195721 9.877123 -0.352270 1.684302 22.199861 0.596064 0.866688 -14.363301 -0.262300 0.000000 -44.205200 9.325749 -0.101365 -1.160320 5.664830 -8.141372 -23.536207 2.601113 -1.285277 15.606763 -0.954431 -7.218475 10.286921 -2.320400 -0.000001 -66.157800
